/* XPM */
static char *result[] = {
/* columns rows colors chars-per-pixel */
"141 135 16 1 ",
"  c #161C2E",
". c #693D5B",
"X c #685757",
"o c #417168",
"O c #B65555",
"+ c #9E7466",
"@ c #977B6B",
"# c #38B251",
"$ c #D9945F",
"% c #C5836E",
"& c #95D562",
"* c #FFED44",
"= c #D5B583",
"- c #EFE1AB",
"; c white",
": c None",
/* pixels */
":::::::::::::::::::::::::::::::::::::::::::::::::::::::::::::::::::::::::::::::::::::::::::::::::::::::::::::::::::::::::::::::::::::::::::::",
":::::::::::::::::::::::::::::::::::::::::::::::::::::::::::::::::::::::::::::::::::::::::::::::::::::::::::::::::::::::::::::::::::::::::::::",
":::::::::::::::::::::::::::::::::::::::::::::::::::::::::::::::::::::::::::::::::::::::::::::::::::::::::::::::::::::::::::::::::::::::::::::",
":::::::::::::::::::::::::::::::::::::::::::::::::::::::::::::::::::::::::::::::::::::::::::::::::::::::::::::::::::::::::::::::::::::::::::::",
":::::::::::::::::::::::::::::::::::::::::::::::::::::::::::::::::::::::::::::::::::::::::::::::::::::::::::::::::::::::::::::::::::::::::::::",
":::::::::::::::::::::::::::::::::::::::::::::::::::::::::::::::::::::::::::::::::::::::::::::::::::::::::::::::::::::::::::::::::::::::::::::",
":::::::::::::::::::::::::::::::::::::::::::::::::::::::::::::::::::::::::::::::::::::::::::::::::::::::::::::::::::::::::::::::::::::::::::::",
"::::::::::::::::++++:::::::::::::::::::::::::::::::::::::::::::::::::::::::::::::::::::::::::::::::::::::::::::::::::::::::::::::::::::::::::",
"::::::::::::::++++++:::::::::::::::::::::::::::::::::::::::::::::::::::::::::::::::::::::::::::::::::::::::::::::::::::::::::::::::::::::::::",
":::::::::::::++++++::::::::::::::::::::::::::::::::::::::::::::::::::::::::::::::::::::::::::::::::::::::::::::::::::::::::::::::::::::::::::",
":::::::::::::+++++:::::::::::::::::::::::::::::::::::::::::::::::::::::::::::::::::::::::::::::::::::::::::::::::::::::::::::::::::::::::::::",
"::::::::::::+++++::::::::::::::::::::::::::::::::::::::::::::::::::::::::::::::::::::::::::::::::::::::::::::::::::::::::::::::::::::::::::::",
":::::::::::+++++:::::::::::::::::::::::::::::::::::::::::::::::::::::::::::::::::::::::::::::::::::::::::::::::::::::::::::::::::::::::::::::",
":::::::::::++++::::::::::::::::::::::::::::::::::::::::::::::::::::::::::::::::::::::::::::::::::::::::::::::::::::::::::::::::::::::::::::::",
":::::::::::++++::+++:::::::::::::::::::::::::::::::::::::::::::::::::::::::::::::::::::::::::::::::::::::::::::::::::::::::::::::::::::::::::",
":::::::::::+++::++++:::::::::::::::::::::::::::::::::::::::::::::::::::::::::::::::::::::::::::::::::::::::::::::::::::::::::::::::::::::::::",
":::::::::::++:::+++::::::::::::::::::::::::::::::::::::::::::::::::::::::::::::::::::::::::::::::::::::::::::::::::::::::::::::::::::::::::::",
":::::::::::::::+++:::::::::::::::::::::::::::::::::::::::::::::::::::::::::::::::::::::::::::::::::::::::::::::::::::::::::::::::::::::::::::",
"::::::::::::::+++::::::::::::::::::::::::::::::::::::::::::::::::::::::::::::::::::::::::::::::::::::::::::::::::::::::::::::::::::::::::::::",
"::::::::::::::+++::::::::::::::::::::::::::::::::::::::::::::::::::::::::::::::::::::::::::::::::::::::::::::::::::::::::::::::::::::::::::::",
"::::::::::::::++:::::::::::::::::::::::::::::::::::::::::::::::::::::::::::::::::::::::::::::::::::::::::::::::::::::::::::::::::::::::::::::",
":::::::::::::::::::::::::::::::::::::::::::::::::::::::::::::::::::::::::::::::::::::::::::::::::::::::::::::::::::::::::::::::::::::::::::::",
":::::::::::::::::::::::::::::::::::::::::::::::::::::::::::::::::::::::::::::::::::::::::::::::::::::::::::::::::::::::::::::::::::::::::::::",
"::::::::::::::::+++::::::::::::::::::::::::::::::::::::::::::::::::::::::::::::::::::::::::::::::::::::::::::::::::::::::::::::::::::::::::::",
":::::::::::::::+++:::::::::::::::::::::::::::::::::::::::::::::::::::::::::::::::::::::::::::::::::::::::::::::::::::::::::::::::::::::::::::",
"::::::::::::::++++::::::::::::::::::::::::::::::::::::::::::::::::::         ::::::::::::::::::::::::::::::::::::::::::::::::::::::::::::::::",
"::::::::::::::++++::::::::::::::::::::::::::::::::::::::::::::::::::   OOO     ::::::::::::::::::::::::::::::::::::::::::::::::::::::::::::::",
":::::::::::::+++++:::::::::::::::::::::::::::::::::::::::::::::::::::   OOOOO     :::::::::::::::::::::::::::::::::::::::::::::::::::::::::::",
"::::::::::::+++++:::::::::::::::::::::::::::::::::::::::::::::::::::::   OOOOOO    ::::::::::::::::::::::::::::::::::::::::::::::::::::::::::",
"::::::::::::+++++::::::::::::::::::::::::::::::::::::::::::::::::::::::   OOOOOO    :::::::::::::::::::::::::::::::::::::::::::::::::::::::::",
":::::::::::++++++::::::::::::::::::::::::::::::::::::::::::::::::::::::   %%OOOOOO   ::::::::::::::::::::::::::::::::::::::::::::::::::::::::",
":::::::::::++++++::::::::::::::::::::::::::::::::::::::::::::::::::::::   %%%OOOOOO   :::::::::::::::::::::::::::::::::::::::::::::::::::::::",
"::::::::::++++++::::::::::::::::::::::::::::::::::::::::::::::::::::::    %%%OOOOOO.   ::::::::::::::::::::::::::::::::::::::::::::::::::::::",
"::::::::::$$$+++:::::::::::::::::::::::::::::::::::::::::::::::::::::   %%%%   OOO...   :::::::::::::::::::::::::::::::::::::::::::::::::::::",
"::::::::::$$$+++::::::::::::::::::::::::::::::::::       :::::::::::   %%        O....   ::::::::::::::::::::::::::::::::::::::::::::::::::::",
"::::::::::$$$++$::::::::::::::::::::::::::::::::::         ::::::::   %O           ....   :::::::::::::::::::::::::::::::::::::::::::::::::::",
":::::::::$$$$+$:::::::::::::::::::::::::::::::::::  &##     ::::::   OOOOO.....      ...  :::::::::::::::::::::::::::::::::::::::::::::::::::",
":::::::::$$+++$:::::::::::::::::::::::::::::::::::  &&&###   ::::   OO%OOOOOOOOOOOOO....   :::   ::::::::::::::::::::::::::::::::::::::::::::",
"::::::::$$$++$$:::::::::::::::::::::::::::::::::::: &&&&###   ::   OO%%%%%OOOOOOOOOO....   :::    :::::::::::::::::::::::::::::::::::::::::::",
"::::::::$$++$$$::::::::::::::::::::::::::::::::::::  &&&####      OOOOO.%%OO    OOOO.....   ::     ::::::::::::::::::::::::::::::::::::::::::",
"::::::::$++$$$$:::::::::::::::::::::::::::::::::::::   &&####    OOOO..          OO......   ::  o   :::::::::::::::::::::::::::::::::::::::::",
"::::::::$+$$$$+::::::::::::::::::::::::::::::::::::::  &&&###    OOO..              ......  ::  o#  :::::::::::::::::::::::::::::::::::::::::",
":::::::+++$$$$:::::::::::::::::::::::::::::::::::::::   &&###o   OOO..         O       ...     oo#   ::::::::::::::::::::::::::::::::::::::::",
":::::::++$$$$:::::::::::::::::::::::::::::::::::::::::  &&###oo  OOOOOOOOOOOOOOOOO.........   ooo#   ::::::::::::::::::::::::::::::::::::::::",
":::::::+$$$$::::::::::::::::::::::::::::::::::::::::::  &&###oo  OOOOOOOOOOOOOOOOOOOOOO....   ooo#&  ::::::::::::::::::::::::::::::::::::::::",
":::::::+$$$:+++::::::::::::::::::::::::::::::::::::::::  ###ooooOOOO%%%%%%OOOOOOOOOOOOO....   o###&  ::::::::::::::::::::::::::::::::::::::::",
"::::::++$$$++++::::::::::::::::::::::::::::::::::::::::  ###oooo%%%%%%%%%%%%%%OOOOOOO......  oo###&  ::::::::::::::::::::::::::::::::::::::::",
"::::::++$$$+++:::::::::::::::::::::::::::::::::::::::::   ooooo%%%%%%%%%%%%%%%%...........  oo###&&  ::::::::::::::::::::::::::::::::::::::::",
"::::::+$:$++:::::::::::::::::::::::::::::::::::::::::::    ooo%%%%%%OOOOOOOOOOOO.......... ooo###&&  ::::::::::::::::::::::::::::::::::::::::",
"::::::::$$$$::::::::::::::::::::::::::::::::::::::::::::     %%%%%OOOOOOOOOOOOOO..........oooo##&&&  ::::::::::::::::::::::::::::::::::::::::",
"::::::::$$$:++:::::::::::::::::::::::::::::::::::::::::     O%%%OOOOOOOOOOOOOOOO..........oooo###&  :::::::::::::::::::::::::::::::::::::::::",
":::::::::::+++:::::::::::::::::::::::::::::::::::::::::   OOOOOOOOO    OOOOOOOO............oooo##  ::::::::::::::::::::::::::::::::::::::::::",
"::::::::::+++:::::::::::::::::::::::::::::::::::::::::   OO%%OOOOO      OOOOOO.............ooooo   ::::::::::::::::::::::::::::::::::::::::::",
"::::::::++++$:::::::::::::::::::::::::::::::::::::::::  OO%%%OOO          O.......   OOO....      :::::::::::::::::::::::::::::::::::::::::::",
"::::::::++++$:::::::::::::::::::::::::::::::::::::::::  OO%%%OOO   ###                OOO...      :::::::::::::::::::::::::::::::::::::::::::",
":::::::++++$$:::::::::::::::::::::::::::::::::::::::::  OO%%OOO    #####               OOO....   ::::::::::::::::::::::::::::::::::::::::::::",
":::::::++$$$::::::::::::::::::::::::::::::::::::::::::  OO%OOO   oo######        ooo    OOO....   :::::::::::::::::::::::::::::::::::::::::::",
"::::::$$$$$$::::::::::::::::::::::::::::::::::::::::::   OOOO  ooooo#############ooo    OOO.....  :::::::::::::::::::::::::::::::::::::::::::",
"::::::$$$$$$::::::::::::::::::::::::::::::::::::::::::   OOOO    ooo #############ooo    OOO....  :::::::::::::::::::::::::::::::::::::::::::",
"::::::$$$$$$:::::::::::::::::::::::::::::::::::::::::::   OOO   oooo  #&##########oo     OOO....  :::::::::::::::::::::::::::::::::::::::::::",
"::::::$$$$$$::::::::::::::::::::::::::::::::::::::::::::   OO    ooo   &&########  ooooo OOO....  :::::::::::::::::::::::::::::::::::::::::::",
"::::::$$$$$$:::::::::::::::::::::::::::::::::::::::::::    OOO   ooo   &&&######  ooooo  OOO.... ::::::::::::::::::::::::::::::::::::::::::::",
"::::::$$$$$$:::::::::::::::::::::::::::::::::::::::::   ..  OO    ooo  &&&######  ooooo  OOO...  ::::::::::::::::::::::::::::::::::::::::::::",
"::::::$$$$$$::::::::::::::::::::::::::::::::::::::::   .... ...    oo  &&&#####   oooo  OOO...   ::::::::::::::::::::::::::::::::::::::::::::",
"::::::$$$$$::::::::::::::::::::::::::::::::::::::::   ..........   oo  &&######  oooo   OO...   :::::::::::::::::::::::::::::::::::::::::::::",
":::::::$$$$:::::::::::::::::::::::::::::::::::::::    ...........   o &&&#####   ooo   OOO.    ::::::::::::::::::::::::::::::::::::::::::::::",
":::::::$$$$:::::::::::::::::::::::::::::::::::::::      ......OO..    &&&#####  ooo   OOO    ::::::::::::::::::::::::::::::::::::::::::::::::",
":::::::$$$$::::::::::::::::::::::::::::::::::::::  @@     ...OOOOOO   &&####   oo    O....   ::::::::::::::::::::::::::::::::::::::::::::::::",
"::::::::$$$::::$:::::::::::::::::::::::::::::::::  @@==     OOOOOO    &&###   ..    .....   :::::::::::::::::::::::::::::::::::::::::::::::::",
"::::::::$$$::::$:::::::::::::::::::::::::::::::::    ==@@     OOO    ####    ...........    :::::::::::::::::::::::::::::::::::::::::::::::::",
"::::::::$$$::::$$::::::::::::::::::::::::::::::       @@@===        ###      ...........   ::::::::::::::::::::::::::::::::::::::::::::::::::",
":::::::::$$::::$$$::::::::::::::::::::::::::::    .   @@====@@==@@          .........      ::::::::::::::::::::::::::::::::::::::::::::::::::",
":::::::::::::::$$$$::::::::::::::::::::::::     ....     ==@@==@@@     =    ....          :::::::::::::::::::::::::::::::::::::::::::::::::::",
":::::::::::::::$$$$::::::::::::::::::::::::   OOOOOOO     @@@==@@@ ====                 X :::::::::::::::::::::::::::::::::::::::::::::::::::",
":::::::::::::::$$$$$::::::::::::::::::::::::   OOOOOOOO            =@@   @@X      ####    :::::::::::::::::::::::::::::::::::::::::::::::::::",
":::::::::::::::$$$$$:::::::::::::::::::::::::    OOOOOOOOOO      =  @@  @@XX   #########   ::::::::::::::::::::::::::::::::::::::::::::::::::",
":::::::::::::::$$$$$$$::::::::::::::::::::::::       OOOOO     @@==      XX   ########&&   ::::::::::::::::::::::::::::::::::::::::::::::::::",
"::::::::::::::::$$$$$$:::::::::::::::::::::::::             ===@@@            #######&&&        ::::     ::::::::::::::::::::::::::::::::::::",
"::::::::::::::::$$$$$$$:::::::::::::::::::::::::::           ==@@    X@       ######&&&& X@                 :::::::::::::::::::::::::::::::::",
"::::::::::::::::$$$$$$$$::::::::::::::::::::::::::::      :      @@@XXX@      ######&&&  X@@@@@@     =--=    ::::::::::::::::::::::::::::::::",
":::::::::::$$:::$$$$$$$$:::::::::::::::::::::::::::     :::::     @@@XX       ######&&   XX@@@@@X   ==-====   :::::::::::::::::::::::::::::::",
":::::::::::$$:::$$$$$$$$$::::::::::::::::::::::::::    :::::::::               #####&&   XXX@@@XXX  =  ==---       ::::::::::::::::::::::::::",
":::::::::::$$::::$$$$$$$$$:::::::::::::::::::::::::    ::::::::::       :         ###&     XXXXXXX     -----=****    ::::::::::::::::::::::::",
":::::::::::$$$:::$$$$$$$$$$:::::::::::::::::::::::    :::::::::::::::::::::                   XXX     =-----;;*****   :::::::::::::::::::::::",
"::::::::::::$$:::$$$$$$$$$$:::::::::::::::::::::      :::::::::::::::::::::::::::       :::          ==----*;;;*****   ::::::::::::::::::::::",
"::::::::::::$$$::$$$$$$$$$$$::::::::::::::::::::     ::::::::::::::::::::::::::::    ::::::::       ==-----*;;;;*****   :::::::::::::::::::::",
":::::::::::::$$$:$$$$$$$$$$$$:::::::::::::::::::::::::::::::::::::::::::::::::::     ::::::::::    ===--==-*;;;;******  :::::::::::::::::::::",
":::::::::::::**$::$$$$$$$$$$$:::::::::::::::::::::::::::::::::::::::::::::::::::    ::::::::::::   ===  =-**;;;;;******  ::::::::::::::::::::",
":::::::::::::**$$:$$$$$$$$$$$$:::::::::::::::::::::::::::::::::::::::::::::::::::     :::::::::::      ===**;;;;;******  ::::::::::::::::::::",
"::::::::::::::*$$:$$$$$$$$$$$$$:::::::::::::::::::::::::::::::::::::::::::::::::::    ::::::::::::      $$$*;;;;;**;;**  ::::::::::::::::::::",
"::::::::::::::**$$:$$$:$$$$$$$$$:::::::::::::::::::::::::::::::::::::::::::::::::::::::::::::::::::::  $$$$*;;;;;;;;;*** ::::::::::::::::::::",
"::::::::::::::**$$:$$$::$$$$$$$$$: :::::::::::::::::::::::::::::::::::::::::::::::::::::::::::::::::  $$$$$**;;;;;;;;*** ::::::::::::::::::::",
":::::::::::::::**$$:$$::$$$$$$$$$$  ::::::::::::::::::::::::::::::::::::::::::::::::::::::::::::::   $$$$$***;;;;;;;;***  :::::::::::::::::::",
":::::::::::::::***$$:::::$$$$$$$$$$ ::::::::::::::::::::::::::::::::::::::::::::::::::::::::::::   $$$$$$****;;;;;;;;***  :::::::::::::::::::",
"::::::::::::::::**$$$::::$$$$$$$$$$   ::::::::::::::::::::::::::::::::::::::::::::::::::::::::   $$$$$$$$***;;;;;;;;;***  :::::::::::::::::::",
"::::::::::::::::***$$:::::$$$$$$$$$$   :::::::::::::::::::::::::::::::::::::::::::::::::::      $$$$$$$$$***;;;;;*;;;***  :::::::::::::::::::",
"::::::::::::::::****$$::::*$$$$$$$$$$$   ::::::::::::::::::::::::::::::::::::::::::::::::    $$$$$$$$$$****;;;;;;*;;****  :::::::::::::::::::",
"::::::::::::::::::***$::::***$$$$$$$$$$$$   ::::::::::::::::::::::::::::::::::::::::      $$$$$$$$$$$*****;;;;;;;*;;***  ::::::::::::::::::::",
":::::::::::::::::::**$:::::**$$$$$$$$$$$$$$$$:::::::::::::::::::::::::::::::::::::::$$$$$$$$$$***$$$$****;;;;;;;*******  ::::::::::::::::::::",
":::::::::::::::::::::::::::***$$$$$$$$$$$$$$$$$$$:::**:::::::::::::::::::::::::$$$$$$$$$$$$$*****$$****;;;;;;;*********  ::::::::::::::::::::",
":::::::::::::::::::::::::::*****$$$$$$$$$$$$$$$$$::::*****  :::::::::       $$$$$$$$$$$$$$******$*****;;;;;;**********  :::::::::::::::::::::",
":::::::::::::::::::::::::::$*****$$$$$$$$$$$$$$$$$::::*****               $$$$$$$$$$$$$$$*************;;;;************  :::::::::::::::::::::",
"::::::::::::::::::::::::::::$*****$$$***$$$$$$$$$$$:::***********$$$$$$$$$$$$$$$$$$$$$$$$***$$***********************  ::::::::::::::::::::::",
":::::::::::::::::::::::::::::******$$$******$$$$$$$::::**********$$$$$$$$$$$$$$$$$$$$$$$$$$$$$$$$********;;********** :::::::::::::::::::::::",
"::::::::::::::::::::::::::::::******$$$**************:::*************$$$$$$$$$*******$$$$$$$$$$$******;;;;;*********  :::::::::::::::::::::::",
"::::::::::::::::::::::::::::::::*****$$$$**************:****************************$$$$$$$$$$$*****;;;;;;*********$ ::::::::::::::::::::::::",
":::::::::::::::::::::::::::::::::*****$$$$****************************************$$$$$$$$$$$$******;;;;**********$: ::::::::::::::::::::::::",
":::::::::::::::::::::::::::::::::::****$$$$************************************$$$$$$$$$$$$$******;;;;**********$::::::::::::::::::::::::::::",
"::::::::::::::::::::::::::::::::::::***$$$$*****************:************$$$$$$$$$$$$$$$$$******;;;;***********$:::::::::::::::::::::::::::::",
":::::::::::::::::::::::::::::::::::::::*$$$*****************::*****$$$$$$$$$$$$$$$$$$$$$**********************$::::::::::::::::::::::::::::::",
"::::::::::::::::::::::::::::::::::::::::$$$$****************:::::$$$$$$$$$$$$$$$$$$$$$$**********************::::::::::::::::::::::::::::::::",
":::::::::::::::::::::::::::::::::::::::::*$$$**********::***:::::::$***$$$$$$$$$$$$$$***********************:::::::::::::::::::::::::::::::::",
"::::::::::::::::::::::::::::::::::::::::::$$$$*********:::**::::::::::*$$$$$$$$$$$$$**********************:::::::::::::::::::::::::::::::::::",
"::::::::::::::::::::::::::::::::::::::::::::$$$********:::::::::::::::::::::$$$$$***************;;;;*****::::::::::::::::::::::::::::::::::::",
":::::::::::::::::::::::::::::::::::::::::::::::$$*******::::::::::::::::::::******************;;;;;;***$:::::::::::::::::::::::::::::::::::::",
":::::::::::::::::::::::::::::::::::::::::::::::::::******:::**:::::::::::::****************;;;;;;;****:::::::::::::::::::::::::::::::::::::::",
"::::::::::::::::::::::::::::::::::::::::::::::::::::******::***::::::::::******************;;;;****::::::::::::::::::::::::::::::::::::::::::",
"::::::::::::::::::::::::::::::::::::::::::::::::::::*************:::***********************;;***:::::::::::::::::::::::::::::::::::::::::::::",
":::::::::::::::::::::::::::::::::::::::::::::::::*****************::::***********************::::::::::::::::::::::::::::::::::::::::::::::::",
":::::::::::::::::::::::::::::::::::::::::::::::::::***************::::::*****************::::::::::::::::::::::::::::::::::::::::::::::::::::",
":::::::::::::::::::::::::::::::::::::::::::::::::::::::::::::::::::::::::::::::::::::::::::::::::::::::::::::::::::::::::::::::::::::::::::::",
":::::::::::::::::::::::::::::::::::::::::::::::::::::::::::::::::::::::::::::::::::::::::::::::::::::::::::::::::::::::::::::::::::::::::::::",
":::::::::::::::::::::::::::::::::::::::::::::::::::::::::::::::::::::::::::::::::::::::::::::::::::::::::::::::::::::::::::::::::::::::::::::",
":::::::::::::::::::::::::::::::::::::::::::::::::::::::::::::::::::::::::::::::::::::::::::::::::::::::::::::::::::::::::::::::::::::::::::::",
":::::::::::::::::::::::::::::::::::::::::::::::::::::::::::::::::::::::::::::::::::::::::::::::::::::::::::::::::::::::::::::::::::::::::::::",
":::::::::::::::::::::::::::::::::::::::::::::::::::::::::::::::::::::::::::::::::::::::::::::::::::::::::::::::::::::::::::::::::::::::::::::",
":::::::::::::::::::::::::::::::::::::::::::::::::::::::::::::::::::::::::::::::::::::::::::::::::::::::::::::::::::::::::::::::::::::::::::::",
":::::::::::::::::::::::::::::::::::::::::::::::::::::::::::::::::::::::::::::::::::::::::::::::::::::::::::::::::::::::::::::::::::::::::::::",
":::::::::::::::::::::::::::::::::::::::::::::::::::::::::::::::::::::::::::::::::::::::::::::::::::::::::::::::::::::::::::::::::::::::::::::",
":::::::::::::::::::::::::::::::::::::::::::::::::::::::::::::::::::::::::::::::::::::::::::::::::::::::::::::::::::::::::::::::::::::::::::::",
":::::::::::::::::::::::::::::::::::::::::::::::::::::::::::::::::::::::::::::::::::::::::::::::::::::::::::::::::::::::::::::::::::::::::::::",
":::::::::::::::::::::::::::::::::::::::::::::::::::::::::::::::::::::::::::::::::::::::::::::::::::::::::::::::::::::::::::::::::::::::::::::",
":::::::::::::::::::::::::::::::::::::::::::::::::::::::::::::::::::::::::::::::::::::::::::::::::::::::::::::::::::::::::::::::::::::::::::::",
":::::::::::::::::::::::::::::::::::::::::::::::::::::::::::::::::::::::::::::::::::::::::::::::::::::::::::::::::::::::::::::::::::::::::::::",
":::::::::::::::::::::::::::::::::::::::::::::::::::::::::::::::::::::::::::::::::::::::::::::::::::::::::::::::::::::::::::::::::::::::::::::"
};
