/* XPM */
static char *result[] = {
/* columns rows colors chars-per-pixel */
"63 125 6 1 ",
"  c #161C2E",
". c #506A69",
"X c #669D9D",
"o c #D0DEB5",
"O c #8CC3C4",
"+ c None",
/* pixels */
"+++++++++++++++++++++++++...........+++++++++++++++++++++++++++",
"++++++++++++++++++....    .............++++++++++++++++++++++++",
"+++++++++++++++++....   OOOOOOOOXXX......++++++++++++++++++++++",
"++++++++++++........   OOOOOOOOOOOXX......+++++++++++++++++++++",
"+++++++++++.....      OOOOOOOOOOOOOXX............++++++++++++++",
"++++++++++....        OOOOOOOOOOOOOOOOOOO............++++++++++",
"+++++++++......OO     OOOOOOOOOOOOOOOOOOOOOO..........+++++++++",
"+++++++++....XOOOOOO  OOOOOOOOOOOOOOOOOOOOOOO...XXX....++++++++",
"+++++++.....XOOOOOOOX  OOOOOOOOOOOOOOOOOOOOOOOO.XXXXX...+++++++",
"+++++......OOOOOOOOOXOXXXXOOOOOOOOOOOOOOOOOOoooOXXXXXX...++++++",
"+++++..XX.OOOOOOOOOOOOOXXXXXOXXOOOOOOOoooooooooOOXXXXX...++++++",
"++++..XXXXOOOOOOOOOOOOOOXXXXXXXXXXOoooooooooooOOXXXXXXX...+++++",
"++++.XXXXXOOOOOOOOOOOOOOOOXXXXXXXXXXXXXXXXXXXXXXXXXXXXXX..+++++",
"+++..XXXXXOOOOOOOOOOOOOOOOXXXOOOXXXXXXXXXXXXXXXXOOOOXXXX..+++++",
"+++.XXXXXXXooOOOOOOOOOOOOOXXXOOOOXXXXXOOOOOOOOOOOOOOOXXX..+++++",
"+++.XXXX.XXooOOOOOOOOOOOOOXXXOOOOOXXXOOOOOOOOOOOOOOOOXXX..+++++",
"+++.XXX..XXoooooOOOOOOOOOXXXXOOOOOOXXOOOOOOOOOOOOOOOOXXX..+++++",
"+++......XXXoooooooooOXXXXXXXOOOOOOXXOOOOOOOOOOOOOOOOOXX..+++++",
"+++...XXXXXXooooooooXXXXXXXXOOOOOOOOXXOOOOOOOOOOOOOOOOXX..+++++",
"++....XXXXXXXXooooXXXXXXXXXOOOOOOOOOOXOOOOOOOOOOOOOOOOXXX..++++",
"++...XXXXOOXXXXXXOOOXXXXXOOOOOOOOOOOOOOOOOOOOOOOOOOOOOXXX..++++",
"++...XXOOOOOXXXXXOOOOXXXXOOOOOOOOOOOOOOOOOOOOOOOOOOOOXXXX..++++",
"++..XXXOOOOOOOXXXOOOOOOXXOOOOOOOOOOOOOOOOOOOOOOOOOOOOXXX...++++",
"+ ..XXOOOOOOOOOOXXOOOOOXXOOOOOOOOOOOOOOOOOOOOOOOOOOOOOO.....+++",
"+  .XXOOOOOOOOOOOXXXXXXXOOOOOOOOOOOOOOOOOOOOOOOOOOOOOOX..  .X++",
"+   XXOOOOOOOOOOOOXXXXXXXOOOOOOOOOOOOOOOOOoooooooOOXXXX..    ++",
"+   XXOOOOOOOOOOOOOOXXXXXXOOOOOOOOOOOOOoooooooooXXXXXXX      ++",
"+   XXXOOOOOOOOOOOOOOOXXXXXOOOOOOOOOOOOOOoooooXXXXXXX.        +",
"+  ..XXOOOOOOOOOOOOOOOXXXXXOOOOOOOOOOOOOOOOOOX...XXXXXXXXXX   +",
"+  ....XOOOOOOOOOOOOOOXXXXXXXOOOOOOOOOXXXXXXX...XXXXXOOOOXXX  +",
"+ ....XXXXXXXOOOOOOOOOXXXXX.XXXXXXXXXXXXXXX.....XXXOOOOOOXXX.. ",
".....XXXXXXXXOOOOOOOOOOOXXX...XXXXXXXXXX........XXXOOOOOOXXX.. ",
".....XXXXXXOXXOOOOOOOOOOXXX.....XXX.......OOO.......OOOOXXXX.  ",
".... XXXXXXOOOOOOOOOOOXXXXXX.........OOOOOOOOOO...XOOOOXXXX..  ",
".... XXXXOOOOOOOOOOOXXXXXXXXXXXXXXOOOOOOOOOOOOOOOOXOOOXXXX...  ",
" ..  XXXOOOOOOOOOOOOOOOOOOOOXXXOOOOOOOOOOOOOOOOOOOOXXXXXX....  ",
"     XXXOOOOOOOOOOOOOOOOOOOOOOOOOOOOOOOOOOOOOOOOOOOXXXXX....   ",
"      XXOOOOOOOOOOOOOOOOOOOOOOOOOOOOOOOOOOOOOOOOOOOOXX....     ",
"      OOOOOOOOOOOOOOOOOOOOOOOOOOOOOOOOOOOOOOOOOOOOOOXXX......  ",
"  ..   OOOOOOOOOOOOOOOOOOOOOOOOOOOOOOOOOOOOOOOOOOOOXXX..XXX..  ",
" ....  OOOOOOOOOOOOOOOOOOOOOOOOOOOOOOOOOOOOOOOOOOOOXX..XXXX..  ",
" .....  ooOOOOOOOOOOOOOOOOOOOOOOOOOOOOOOOOOOOOOOXXXX...XXXX..  ",
" .....  oooOOOOOOOOOOOXXOOOOOOOOOOOOOOOOOOOOOOOOOO...........  ",
".......  oooooOOOOOOXXXXOOOOOOOOOOOOOOOOOOOOOOOOOOXXXX.......  ",
"...........ooooooXXXXXXOOOOOOOOOOOOOOOOOOOOOOOOOXXXXXXX.....   ",
"....XX.........XXXXXXOOOOOOOOOXOOOOOOOOOOOOOOOXXXXXXXXX.....   ",
"...XXXX........XXXXXXOOOOOOOOXXOOOOOOOOOOOOOOOOOOOXXXX...      ",
"...XXXXXX..........XoOOOOOOOOXXOOOOOOOOOOOOOOOOOOOOOO          ",
" ..XXXXXXXX.......XXoOOOOOOOOXOOOOOOOOOOOOOOOOOOOOOOoO     .   ",
" ..XXXXXXXXXX. .XXXooOOOOOOOOXXOOOOOOOOOOOOOOOOOOOOooXX   ...  ",
" ...XXXXXXXXX  .XXXoooOOOOOOOXXXOOOOOOOOOOOOOOOOOOoooXX. ....  ",
" ....XXXXXXXX   .XXXooooOOOOOXX OOOOOOOOOOOOOOOOOoooXXX. XX... ",
"  ....XXXXXXX   .XXXoooooooOOXX OOOOOOOOOOOOoooooooXXXX.XXX... ",
"  ......XXXX  X   XXXooooooooX   OOOOOOOoooooooooooXXXXXXXX... ",
"    .....XX   XOOXXXXXXoooooo     OOOOOOooooooooooXXXXXXXXX... ",
"      ....   XXOOOOXXXXXXXooX      OOOOOOOoooooooXXXXX..XXX... ",
"      XXXXXXXXXOOOOOOXXXXXXXXOO .......OOOoooooXXXXXXX..XX.... ",
"  .. .XXXXXXXXXOOOOOOOOOOOXXXOOO............XXXXXXXXX........  ",
" .....XXXXOOXXXOOOOOOOOOOOOOOOOOOO..........XXXXXXXX.........  ",
" .....XXXXOOOXXOOOOOOOOOOOOOOOOOOOOOOO....XXXXXXXXXX..OO....   ",
" ......XOOOOOOOOOOOOOOOOOOOOOOOOOOOOOXXXXXXXXXXXXXXXOOOOO..    ",
"  .....XOOOOOOOOOOOOOOOOOOOOOOOOOOOOOXXXXXXXXXXXX..OOOOOO.     ",
"  .....XOOOOOOOOOOOOOOOOOOOOOOOOOOOOOOXXXXXXXXXXXOOOOOOOO...   ",
"   ....XXOOOOOOXOOOOOOOOOOOOOOOoooo...XXXXXOOOOOOOOOOOOO....   ",
"   .....XOOOOOOXXOOOOOOOOOOOOOoooooX.. XXXOOOOOOOOOOOO......   ",
"   XXX..XXXXXOOXXXOOOOOOooooooooooo .. .OOOOOOOOOoOOoo.......  ",
"   XXXX..XXXXXXXXXooooooooooooooo     .OOOOOOOOooooooX.......  ",
"  ..XXXXXX.XXXXXXXXXXoooooooooo       .OOOOOOOoooooXXX..XXXX.  ",
"  ..XXXXXX........XXXXXXXXXXXXX.....  .OOOOOOOooXXXXXX.XXXXX.  ",
"  ....XXXX.....XXXXXXXXXXXXXXXXX....  .XXOOXOOXXXXXXXXXXXXXX.  ",
"  ............XXXXXXXXXXXXXXXXXXX...  XXXXXXXXXXXXXXXXXXXXX..  ",
"  ............XXXXXXXXXXXXXXXXXXXX... XXXXXXXXXXXXXXXXXXX....  ",
"  ...........XXXXXXXXXXXXXXXXXXXXX....XXXXXXXXXXXXXXXXXX.....  ",
" ............XXXXXXXXXXXXXXXXXXXXX....XXXXXXXXXXXXXXXXXX.....  ",
" ....X.......XXXXXXXXXXXXXXXXXXXXX....XXXXXXXXXXXXXXXXXX.....  ",
" ....XX.....XXXXXXXXXXXXXXXXXXXXXXX.....XXXXXXXXXXXXXXXX.....  ",
" ....XXXXXXXXXXXXXXXXXXXXXXXXXXXXXX.....XXXXXXXXXXXXX........  ",
" ....XXXXXXXXXXXXXXXXXXXXXXXXXXXXX......XX....XXXXX..........  ",
" ......XXXXXXXXXXXXXXXXXXXXXXXX..............OOOXXX....X.....  ",
" ..........XXXXXXXXXXXXXXXXXX...............OOOOXXXXXXXX....   ",
"  ...........XXXXXXXXXXXXXXXXXXXXXXX...XOOOOOOOOXXXXXXXX....   ",
"  .............XXXXXXXXXXXXXXXXXXXXX...XOOOOOOXXXXXXXXXX....   ",
"  ................XXXXXXXXXXXXXXXXX.....XOOXXXXXXXXXXXXX...    ",
"  ..........XXXXXXXXXXXXXXXXXXXXXXX.....XXXXXXXXXXXXXXXX..     ",
"   .........XXXXXXXXXXXXXXXXXXXXXXX.. ...XXXXXXXXXXXXXX...     ",
"     .....XXXXXXXXXXXXXXXXXXXXXXXXX.. ....XXXXXXXXXXXXX....XXX ",
"      .....XXXXXXXXXXXXXXXXXXXXXXX...  ...XXXXXXXXXXXXX..XXXXX ",
"       ......XXXXXXXXXXXXXXX.XXXXX...   ...XXXXXXXXXXXXXOXXXXX ",
"   ..     .....XXXXXXXXXXXX..XXXX.XX.    .....XXXXXXXXXOXXXXX  ",
"  .............XXXXXXXXXX...OOXX.XXX   XXXOOOXXXXXOOOOOOXXXXX  ",
"  ...........XXXXXXXXXXXX..OOOX..XX.    XXXOOOOOOOOOOOOOXXXX.  ",
"   ..........XXXXXXXXXXXXX.OOX.....      oooOOOOOOOOOOOOXX...  ",
"   .......XXXXXXXXXXXXXXXXXXX.....       oooooooOOOOOOOO.....  ",
"  XXX.....XXXXXXXXXXXXXXXXXXX.....        oooooooooOOO.......  ",
" XXXXXXXXXXXXXXXXXXXXXXXXXXXX        ..   OOOOoooXXXX........  ",
" XXXXXXXXXOOOXXXXXXXXXXXXXXX      XXX..   XXXXOXXXXXX........  ",
" XXXXXXXXOOOOOOOOOOOXXXXXOOOOOOOOOXXX..  XXXXXXXXXXXXXXXX....  ",
" .XXXXXXXOOOOOOOOOOOOOOOOOOOOOOOOOXXX..  XXXXXXXXXXXXXXXX....  ",
" ...XXXXooooOOOOOOOOOOOOOOOOOOOOOoooo..  XXXXXXXXXXXXXXXX....  ",
" ...XXXXoooooooOOOOOOOOOOOOOOOooooooo..  XXXXXXXXXXXXXXXX..... ",
" ......OOooooooOOOOOOOOOOOOooooooooo.....XXXXXXXXXXXXXXXX..... ",
" ........XXXXXXXXooooooooooooooooooXX....XXXXXXXXXXXXXXXX..... ",
" ..........XXXXXXXXXooooooooooooXXXXXX...XXXXXXXXXXXXXXXX..... ",
" ..........XXXXXXXXXXXXXXXXXXXXXXXXXXX...XXXXXXXXXXXXXXXX...   ",
" .........XXXXXXXXXXXXXXXXXXXXXXXXXXXX...XXXXXXXXXXXXXXX....   ",
" .........XXXXXXXXXXXXXXXXXXX...XXXXXX...XXXXXXXXXXXXXXX...    ",
"  ........XXXXXXXXXXXXXXXXXX....XXXXXX...XXXXXXXXXXXXXXXXX  .  ",
"  ........XXXXXXXXXXXXXXXXXXXOOOOXXXXX...XXXXXXXXXXXXXXXXXXXX  ",
"  .........XXXXXXXXXXXXXXXXXXOOOXXXXX....XXXXXXXXXXXXXXXXXXXX  ",
"  ....XX....XXXXXXXXXXXXXXXXXXXXXXXXX.....XXXXXXXXXXXXXXOOXX.  ",
"  ....XXXX...XXXXXXXXXXXXXXXXXXXXXX..XXX..XXXXXXXXXXXOOOOOX..  ",
"  ....XXXXX....XXXXXXXXXXXXXXXXXXX..XXXX...XXXXXXXXXOOOOO....  ",
"  .....XXXXXOOOOXXXXXXXXXXXXXXXX..OOOXX.....XXXXXXXXXXXX.....  ",
"  ......XXOOOOOOOXXXXXXXXXXXXX..OOOOO........XXXXXXXXX.......  ",
"  ........OOOOOOOOOOXXXXOOOOOOOOOOOOXX...XXXXXXXXXXXXXXXX....  ",
"  ..........OOOOOOOOOXXXXXOOOOOOOOOXXX....XXXXXXXXXXXXXXX....  ",
"   ...........XXXOOOOOXXXXXXXXXXXXXXXX....XX...XXXXXXXXXX...   ",
"   ...........XXXXXXXXXXXXXXXXXXXXXXX.....XX....XXXXXXXXXX..  +",
"+   ..........XXXXXXXXXXXXXXXXXXXXXX..  ...X.....XXXXXXXXX..  +",
"+    .......XXXXXXXXXXXXXXXXXXXXXXX...  ....X....XXXXXXXXX    +",
"++   .....XXXXXXXXXXXXXXXXXXXXXXXX...    .......XXXXXXXXXX    +",
"++++  .....XXXXXXXXXXXXXXXXXXXXXX        ......XXXXXXXXX..   ++",
"+++++  .......XXXXXXXXXXXXXXXXX           ......XXXXXXX..    ++",
"+++++++++.......XXXXXXXXXXXXX               .....XXX.....  ++++",
"++++++++++++++++XXXXXXXXX......+++++++++++     ++++++++++++++++"
};
